<svg width="754" height="565" viewBox="0 0 754 565" fill="none" xmlns="http://www.w3.org/2000/svg">
<path d="M141.152 562.142C122.225 557.492 105.71 544.964 100.358 531.2C96.8883 522.274 96.8611 507.312 100.296 496.789C106.291 478.422 118.434 460.902 140.425 438.891C163.957 415.336 181.388 401.485 232.918 365.397C284.161 329.51 300.842 316.638 312.673 303.853C321.353 294.473 322.13 289.479 315.289 287.041C311.457 285.676 302.34 288.601 293.012 294.188C275.58 304.629 252.804 323.257 199.391 370.763C140.492 423.146 117.356 440.66 92.777 451.467C55.9359 467.665 22.4376 458.937 7.58983 429.273C-0.370372 413.368 -2.1071 395.606 2.55932 377.822C5.05209 368.321 16.1307 346.658 23.5062 336.862C50.6415 300.819 97.8678 266.125 152.801 241.876C177.472 230.987 211.24 219.839 232.377 215.608C237.433 214.596 241.971 213.388 242.461 212.924C242.951 212.46 239.788 209.734 235.431 206.866C224.311 199.546 211.339 186.458 209.665 180.869C207.879 174.907 210.136 170.355 215.805 168.484C220.102 167.066 234.871 167.429 263.365 169.655C280.338 170.981 286.89 170.12 288.068 166.409C288.432 165.26 287.42 156.632 285.817 147.236C282.211 126.097 281.691 105.315 284.534 96.063C286.77 88.7884 291.605 83.5639 297.658 81.8819C304.702 79.9245 315.685 82.7087 334.43 91.203C351.628 98.9962 357.018 100.378 362.064 98.2881C367.936 95.8558 369.669 89.743 372.901 60.0726C376.042 31.2279 379.856 15.9898 386.084 7.39215C394.33 -3.99223 404.871 -0.937381 409.728 14.2447C410.456 16.5221 411.61 24.309 412.292 31.5491C413.075 39.8564 413.982 44.7128 414.751 44.7128C415.421 44.7128 419.02 40.1516 422.749 34.5768C436.639 13.8112 452.989 2.01048 470.389 0.191805C482.113 -1.03364 491.219 3.69957 492.931 11.9096C494.856 21.1362 490.177 32.208 470.841 64.1802C457.633 86.019 454.152 93.4867 454.115 100.062C454.06 109.627 463.53 111.701 475.137 104.666C478.388 102.696 487.514 95.2754 495.417 88.1756C514.012 71.4726 520.292 66.6911 531.155 60.9677C547.317 52.4524 558.617 51.9887 563.442 59.6427C565.263 62.5326 565.545 64.4274 565.158 71.2101C563.949 92.4487 548.384 119.698 513.571 161.517C493.025 186.199 490.059 191.259 496.135 191.259C497.289 191.259 509.896 185.502 524.151 178.465C561.002 160.272 589.237 149.337 629.296 137.744C662.68 128.081 675.002 125.976 698.513 125.915C720.825 125.858 727.382 127.032 738.881 133.142C750.694 139.419 755.408 149.227 752.649 161.788C747.577 184.879 722.989 205.744 685.436 218.822C663.093 226.604 640 230.972 584.953 237.829C565.026 240.311 548.301 242.731 547.786 243.207C547.271 243.683 549.56 245.354 552.873 246.921C567.443 253.814 568.479 265.859 554.93 270.845C547.799 273.469 547.505 273.973 551.426 276.859C558.705 282.218 559.835 289.055 554.35 294.541C550.254 298.637 545.466 300.236 534.392 301.205C530.08 301.583 526.551 302.141 526.551 302.446C526.551 302.751 529.188 305.766 532.411 309.145C541.744 318.929 542.711 328.509 535.132 336.088C529.645 341.575 521.472 342.752 505.432 340.367C494.397 338.725 494.084 339.142 497.859 350.458C506.316 375.814 497.022 398.871 475.863 405.022C464.016 408.466 451.127 405.078 428.618 392.601C411.556 383.144 406.195 382.453 402.677 389.255C400.564 393.34 400.674 397.164 403.411 414.804C406.495 434.688 406.81 464.278 404.047 474.618C396.842 501.578 374.914 521.13 342.053 529.894C332.089 532.552 314.417 533.143 307.322 531.056C301.557 529.36 296.753 525.33 293.706 519.635C291.54 515.586 291.32 513.628 291.32 498.411C291.32 479.786 292.305 473.779 299.652 447.58C302.071 438.955 304.289 428.674 304.58 424.733C305.044 418.461 304.824 417.282 302.812 415.27C296.414 408.872 282.91 417.402 270.989 435.371C268.31 439.409 261.873 450.5 256.685 460.017C231.573 506.084 224.879 517.003 211.98 532.948C203.322 543.649 191.387 553.997 182.516 558.492C170.695 564.482 155.967 565.782 141.152 562.142Z" fill="#694A96"/>
</svg>
