<svg width="25" height="25" viewBox="0 0 25 25" fill="none" xmlns="http://www.w3.org/2000/svg">
<g clip-path="url(#clip0_654_36)">
<path d="M13.6391 22.7256H11.3647V24.9999H13.6391V22.7256Z" fill="white"/>
<path d="M13.6391 20.4551H11.3647V22.7294H13.6391V20.4551Z" fill="white"/>
<path d="M20.455 18.1807H18.1807V20.455H20.455V18.1807Z" fill="white"/>
<path d="M13.6391 18.1807H11.3647V20.455H13.6391V18.1807Z" fill="white"/>
<path d="M6.81924 18.1807H4.54492V20.455H6.81924V18.1807Z" fill="white"/>
<path d="M18.184 15.9102H15.9097V18.1845H18.184V15.9102Z" fill="white"/>
<path d="M13.6391 15.9102H11.3647V18.1845H13.6391V15.9102Z" fill="white"/>
<path d="M9.09366 15.9102H6.81934V18.1845H9.09366V15.9102Z" fill="white"/>
<path d="M15.9096 13.6357H13.6353V15.9101H15.9096V13.6357Z" fill="white"/>
<path d="M13.6391 13.6357H11.3647V15.9101H13.6391V13.6357Z" fill="white"/>
<path d="M11.3647 13.6357H9.09033V15.9101H11.3647V13.6357Z" fill="white"/>
<path d="M24.9999 11.3643H22.7256V13.6386H24.9999V11.3643Z" fill="white"/>
<path d="M22.7294 11.3643H20.4551V13.6386H22.7294V11.3643Z" fill="white"/>
<path d="M20.455 11.3643H18.1807V13.6386H20.455V11.3643Z" fill="white"/>
<path d="M18.184 11.3643H15.9097V13.6386H18.184V11.3643Z" fill="white"/>
<path d="M15.9096 11.3643H13.6353V13.6386H15.9096V11.3643Z" fill="white"/>
<path d="M13.6391 11.3643H11.3647V13.6386H13.6391V11.3643Z" fill="white"/>
<path d="M11.3647 11.3643H9.09033V13.6386H11.3647V11.3643Z" fill="white"/>
<path d="M9.09366 11.3643H6.81934V13.6386H9.09366V11.3643Z" fill="white"/>
<path d="M6.81924 11.3643H4.54492V13.6386H6.81924V11.3643Z" fill="white"/>
<path d="M4.54874 11.3643H2.27441V13.6386H4.54874V11.3643Z" fill="white"/>
<path d="M2.27432 11.3643H0V13.6386H2.27432V11.3643Z" fill="white"/>
<path d="M15.9096 9.08984H13.6353V11.3642H15.9096V9.08984Z" fill="white"/>
<path d="M13.6391 9.08984H11.3647V11.3642H13.6391V9.08984Z" fill="white"/>
<path d="M11.3647 9.08984H9.09033V11.3642H11.3647V9.08984Z" fill="white"/>
<path d="M18.184 6.81934H15.9097V9.09366H18.184V6.81934Z" fill="white"/>
<path d="M13.6391 6.81934H11.3647V9.09366H13.6391V6.81934Z" fill="white"/>
<path d="M9.09366 6.81934H6.81934V9.09366H9.09366V6.81934Z" fill="white"/>
<path d="M20.455 4.54492H18.1807V6.81924H20.455V4.54492Z" fill="white"/>
<path d="M13.6391 4.54492H11.3647V6.81924H13.6391V4.54492Z" fill="white"/>
<path d="M6.81924 4.54492H4.54492V6.81924H6.81924V4.54492Z" fill="white"/>
<path d="M13.6391 2.27441H11.3647V4.54874H13.6391V2.27441Z" fill="white"/>
<path d="M13.6391 0H11.3647V2.27432H13.6391V0Z" fill="white"/>
</g>
<defs>
<clipPath id="clip0_654_36">
<rect width="25" height="25" fill="white"/>
</clipPath>
</defs>
</svg>
